# xmcd CD database file
#
# Track frame offsets:
#	150
#	16582
#	32215
#	46809
#	67482
#	87900
#	108364
#	124822
#	148882
#	171531
#
# Disc length: 2476 seconds
#
# Revision: 0
# Processed by: cddbd v1.4PL0 Copyright (c) Steve Scherf et al.
# Submitted via: CDex 1.50
#
DISCID=8f09aa0a
DTITLE=Earl Klugh - Soda Fountain Shuffle
DYEAR=1900
DGENRE=Jazz
TTITLE0=Just Pretend
TTITLE1=Baby Cakes
TTITLE2=Soda Fountain Shuffle
TTITLE3=Moonlight Dancing
TTITLE4=Incognito
TTITLE5=One Night (Alone With You)
TTITLE6=Some Other Time
TTITLE7=Rainbow Man
TTITLE8=Close To Your Heart
TTITLE9=April Love
EXTD=
EXTT0=
EXTT1=
EXTT2=
EXTT3=
EXTT4=
EXTT5=
EXTT6=
EXTT7=
EXTT8=
EXTT9=
PLAYORDER=
